<svg width="1600" height="900" viewBox="0 0 1600 900" fill="none" xmlns="http://www.w3.org/2000/svg">
  <defs>
    <linearGradient id="bg" x1="0" y1="0" x2="1600" y2="900" gradientUnits="userSpaceOnUse">
      <stop stop-color="#060606"/>
      <stop offset="1" stop-color="#15110A"/>
    </linearGradient>
    <linearGradient id="gold" x1="236" y1="171" x2="1348" y2="729" gradientUnits="userSpaceOnUse">
      <stop stop-color="#F7D46B"/>
      <stop offset="1" stop-color="#C68A18"/>
    </linearGradient>
    <filter id="blur" x="0" y="0" width="1600" height="900" filterUnits="userSpaceOnUse" color-interpolation-filters="sRGB">
      <feGaussianBlur stdDeviation="60"/>
    </filter>
  </defs>
  <rect width="1600" height="900" rx="36" fill="url(#bg)"/>
  <g opacity="0.55" filter="url(#blur)">
    <circle cx="1260" cy="180" r="160" fill="#E5A624"/>
    <circle cx="380" cy="720" r="180" fill="#63210E"/>
  </g>
  <rect x="88" y="88" width="1424" height="724" rx="28" stroke="#2A2113"/>
  <path d="M102 246H1498" stroke="#2A2113"/>
  <path d="M240 102V798" stroke="#2A2113"/>
  <circle cx="168" cy="174" r="42" fill="url(#gold)"/>
  <path d="M168 142L194 156V192L168 206L142 192V156L168 142Z" fill="#0A0A0A"/>
  <path d="M156 161H181L158 187H180" stroke="#EAB949" stroke-width="8" stroke-linecap="round" stroke-linejoin="round"/>
  <text x="292" y="200" fill="#F4E9CC" font-family="Arial, Helvetica, sans-serif" font-size="74" font-weight="700">zcash-skills</text>
  <text x="294" y="256" fill="#B9A88A" font-family="Arial, Helvetica, sans-serif" font-size="28">Task-oriented skills for Zcash agents</text>
  <text x="294" y="380" fill="#F8D46E" font-family="Arial, Helvetica, sans-serif" font-size="140" font-weight="700">ROUTE</text>
  <text x="294" y="504" fill="#F8D46E" font-family="Arial, Helvetica, sans-serif" font-size="140" font-weight="700">EXPLAIN</text>
  <text x="294" y="628" fill="#F8D46E" font-family="Arial, Helvetica, sans-serif" font-size="140" font-weight="700">OPERATE</text>
  <text x="294" y="716" fill="#B9A88A" font-family="Arial, Helvetica, sans-serif" font-size="32">Wallet help, protocol explainers, node ops, RPC mapping, ecosystem research, clean writing.</text>
  <rect x="1014" y="312" width="366" height="116" rx="18" fill="#0E0E0E" stroke="#7C5C17"/>
  <text x="1050" y="358" fill="#F4E9CC" font-family="Arial, Helvetica, sans-serif" font-size="22">SKILL</text>
  <text x="1050" y="396" fill="#F7D46B" font-family="Arial, Helvetica, sans-serif" font-size="40" font-weight="700">$zcash-node-ops</text>
  <rect x="958" y="474" width="422" height="186" rx="18" fill="#0D0D0D" stroke="#2C2418"/>
  <text x="996" y="528" fill="#F4E9CC" font-family="Arial, Helvetica, sans-serif" font-size="28" font-weight="700">Agent Jobs</text>
  <text x="996" y="574" fill="#CDB893" font-family="Arial, Helvetica, sans-serif" font-size="24">• Explain Zcash fast</text>
  <text x="996" y="612" fill="#CDB893" font-family="Arial, Helvetica, sans-serif" font-size="24">• Diagnose broken nodes</text>
  <text x="996" y="650" fill="#CDB893" font-family="Arial, Helvetica, sans-serif" font-size="24">• Turn goals into RPC calls</text>
</svg>
